<svg width="27" height="34" viewBox="0 0 27 34" fill="none" xmlns="http://www.w3.org/2000/svg">
<path fill-rule="evenodd" clip-rule="evenodd" d="M26.6579 32.4808C13.0558 30.1761 6.44878 16.0211 4.94651 1.24406C4.9203 0.990311 4.72166 0.807867 4.50287 0.83827C4.28408 0.868673 4.1268 1.09902 4.15301 1.35277C5.69663 16.5438 12.5597 31.0285 26.543 33.3976C26.7607 33.435 26.9634 33.2596 26.9957 33.0059C27.0279 32.7533 26.8767 32.5183 26.6579 32.4808Z" fill="black"/>
<path fill-rule="evenodd" clip-rule="evenodd" d="M4.57776 1.57631C4.99214 2.23348 5.50433 3.06489 5.56483 3.15727C7.20422 5.66084 9.09063 7.73527 11.3037 9.56179C11.4832 9.7103 11.7332 9.66117 11.8613 9.45302C11.9893 9.24488 11.947 8.95491 11.7675 8.8064C9.62095 7.03601 7.791 5.02474 6.20101 2.596C6.10825 2.45451 4.95786 0.584695 4.70076 0.226875C4.5959 0.0795367 4.4971 0.033964 4.4729 0.0257786C4.34586 -0.0233341 4.24605 0.00589051 4.17345 0.0456484C4.09179 0.0912529 3.97281 0.20465 3.91231 0.424488C3.8498 0.654849 3.82156 1.16705 3.80543 1.29568C3.55741 3.23562 3.42634 5.42583 2.95045 7.41957C2.49674 9.32093 1.72847 11.0457 0.188894 12.1519C0.00136125 12.2864 -0.0561113 12.5729 0.0598361 12.7903C0.175783 13.0078 0.422798 13.0745 0.61033 12.9401C2.33139 11.7029 3.21361 9.79213 3.72076 7.66743C4.19362 5.68538 4.33679 3.51509 4.57776 1.57631Z" fill="black"/>
</svg>
